# xmcd
#
# Track frame offsets: 
#        150
#        1611
#        12613
#        23286
#        34648
#        46224
#        57404
#        69785
#        80309
#        91248
#        102013
#        111920
#        123845
#        134802
#        146074
#        157511
#        169187
#        177883
#        189439
#        199240
#        212217
#        223289
#        235192
#        244419
#        254557
#        265439
#        277842
#        289708
#        301734
#        312973
#        324817
#        334547
#
# Disc length: 4612 seconds
#
# Revision: 1
# Processed by: cddbd v1.5PL3 Copyright (c) Steve Scherf et al.
# Submitted via: ExactAudioCopy v0.90b4
#
DISCID=b7120220
DTITLE=Jim Reeves - Welcome To My World - Disc 03
DYEAR=1994
DGENRE=Country
TTITLE0=Spoken Introduction
TTITLE1=I'm Hurting Inside
TTITLE2=If You Were Mine
TTITLE3=That's A Sad Affair
TTITLE4=Yonder Comes A Sucker
TTITLE5=Jimbo Jenkins
TTITLE6=I've Lived A Lot In My Time
TTITLE7=Ichabod Crane
TTITLE8=My Lips Are Sealed
TTITLE9=Your Old Love Letters
TTITLE10=Waltzing On Top Of The World
TTITLE11=Beyond The Shadow Of A Doubt
TTITLE12=Love Me A Little Bit More
TTITLE13=According To My Heart
TTITLE14=Each Time You Leave
TTITLE15=Highway To Nowhere
TTITLE16=Breeze(Bring My Baby Back To Me)
TTITLE17=Roly Poly
TTITLE18=Tweedle O'twill
TTITLE19=Have I Told You Lately That I Love You
TTITLE20=Oklahoma Hills
TTITLE21=My Lips Are Sealed
TTITLE22=Pickin' A Chicken
TTITLE23=I've Got Just The Thing For You
TTITLE24=Mother Of A Honky Tonk Girl (&Carol Johnson)
TTITLE25=Am I Losing You
TTITLE26=According To My Heart
TTITLE27=Don't Tell Me
TTITLE28=I Can't Fly
TTITLE29=Don't Ask Me Why
TTITLE30=Waiting For A Train
TTITLE31=Look Behind You
EXTD=
EXTT0=
EXTT1=
EXTT2=
EXTT3=
EXTT4=
EXTT5=
EXTT6=
EXTT7=
EXTT8=
EXTT9=
EXTT10=
EXTT11=
EXTT12=
EXTT13=
EXTT14=
EXTT15=
EXTT16=
EXTT17=
EXTT18=
EXTT19=
EXTT20=
EXTT21=
EXTT22=
EXTT23=
EXTT24=
EXTT25=
EXTT26=
EXTT27=
EXTT28=
EXTT29=
EXTT30=
EXTT31=
PLAYORDER=
